name winter_1987_natural_cadence_kinematics_mean_var_rad
datacolumns 19
datarows 15
range 0.0000000000 0.1400000000
endheader
time	q_pelvis_tx_mean	q_pelvis_tx_var	q_pelvis_ty_mean	q_pelvis_ty_var	q_pelvis_tilt_mean	q_pelvis_tilt_var	hip_flexion_r_mean	hip_flexion_r_var	knee_angle_r_mean	knee_angle_r_var	ankle_angle_r_mean	ankle_angle_r_var	hip_flexion_l_mean	hip_flexion_l_var	knee_angle_l_mean	knee_angle_l_var	ankle_angle_l_mean	ankle_angle_l_var
0.0000000000	0.0000000000	0.0000000000	0.0000000000	0.0000000000	0.0000000000	0.0000000000	0.3373721444	0.0096897583	-0.0692895713	0.0053478939	0.0003490659	0.0047047856	-0.1851794336	0.0207330231	-0.2419026343	0.0077685057	0.1256637061	0.0097241496
0.0100000000	0.0000000000	0.0000000000	0.0000000000	0.0000000000	0.0000000000	0.0000000000	0.3337942194	0.0099491781	-0.0957313095	0.0058572523	-0.0178023584	0.0052336395	-0.1881464934	0.0213915755	-0.2690425042	0.0080322207	0.1037598240	0.0105498836
0.0200000000	0.0000000000	0.0000000000	0.0000000000	0.0000000000	0.0000000000	0.0000000000	0.3302162945	0.0102120248	-0.1221730476	0.0063897768	-0.0359537826	0.0057906553	-0.1911135531	0.0220604240	-0.2961823741	0.0083003373	0.0818559419	0.0114092627
0.0300000000	0.0000000000	0.0000000000	0.0000000000	0.0000000000	0.0000000000	0.0000000000	0.3261147707	0.0101767806	-0.1528908425	0.0066861163	-0.0518362788	0.0057376519	-0.1907644872	0.0225819290	-0.3310016926	0.0087352167	0.0509636142	0.0122442800
0.0400000000	0.0000000000	0.0000000000	0.0000000000	0.0000000000	0.0000000000	0.0000000000	0.3220132470	0.0101415973	-0.1836086373	0.0069891725	-0.0677187750	0.0056848921	-0.1904154214	0.0231095264	-0.3658210112	0.0091811995	0.0200712864	0.0131087842
0.0500000000	0.0000000000	0.0000000000	0.0000000000	0.0000000000	0.0000000000	0.0000000000	0.3175626574	0.0099143908	-0.2150245638	0.0072691540	-0.0740019603	0.0052969619	-0.1851794336	0.0233756097	-0.4098033084	0.0098103944	-0.0178896248	0.0137355726
0.0600000000	0.0000000000	0.0000000000	0.0000000000	0.0000000000	0.0000000000	0.0000000000	0.3131120678	0.0096897583	-0.2464404904	0.0075546339	-0.0802851456	0.0049227394	-0.1799434459	0.0236432161	-0.4537856055	0.0104604403	-0.0558505361	0.0143769979
0.0700000000	0.0000000000	0.0000000000	0.0000000000	0.0000000000	0.0000000000	0.0000000000	0.3075270142	0.0095528023	-0.2748893572	0.0077531302	-0.0748746249	0.0048373932	-0.1685115393	0.0234023018	-0.5064072825	0.0110761635	-0.0992219680	0.0145028354
0.0800000000	0.0000000000	0.0000000000	0.0000000000	0.0000000000	0.0000000000	0.0000000000	0.3019419606	0.0094168211	-0.3033382240	0.0079542005	-0.0694641042	0.0047527933	-0.1570796327	0.0231626212	-0.5590289594	0.0117094936	-0.1425933999	0.0146292211
0.0900000000	0.0000000000	0.0000000000	0.0000000000	0.0000000000	0.0000000000	0.0000000000	0.2940879790	0.0095357513	-0.3248057738	0.0079697741	-0.0556760031	0.0048738787	-0.1391900078	0.0222943473	-0.6175847558	0.0118991180	-0.1851794336	0.0140234361
0.1000000000	0.0000000000	0.0000000000	0.0000000000	0.0000000000	0.0000000000	0.0000000000	0.2862339973	0.0096554279	-0.3462733236	0.0079853629	-0.0418879020	0.0049964872	-0.1213003830	0.0214426599	-0.6761405522	0.0120902654	-0.2277654674	0.0134304602
0.1100000000	0.0000000000	0.0000000000	0.0000000000	0.0000000000	0.0000000000	0.0000000000	0.2755874889	0.0099665946	-0.3587524277	0.0080635353	-0.0248709418	0.0049472611	-0.0977384381	0.0200600395	-0.7360053456	0.0116152526	-0.2633701841	0.0125356846
0.1200000000	0.0000000000	0.0000000000	0.0000000000	0.0000000000	0.0000000000	0.0000000000	0.2649409805	0.0102826961	-0.3712315319	0.0081420886	-0.0078539816	0.0048982786	-0.0741764932	0.0187234925	-0.7958701389	0.0111497591	-0.2989749009	0.0116717515
0.1300000000	0.0000000000	0.0000000000	0.0000000000	0.0000000000	0.0000000000	0.0000000000	0.2517637446	0.0105140606	-0.3747221904	0.0084120177	0.0087266463	0.0046570216	-0.0462512252	0.0171575838	-0.8521570073	0.0102120248	-0.3198315854	0.0111497591
0.1400000000	0.0000000000	0.0000000000	0.0000000000	0.0000000000	0.0000000000	0.0000000000	0.2385865087	0.0107479992	-0.3782128489	0.0086863485	0.0253072742	0.0044218569	-0.0183259571	0.0156600465	-0.9084438757	0.0093154749	-0.3406882700	0.0106397077
